<svg xmlns="http://www.w3.org/2000/svg" width="16" height="16">
  <path d="M 0 0 L 0 16 L 10 16 L 10 15 L 5 15 L 5 13 L 10 13 L 10 11 L 9 11 L 9 9 L 15 9 L 15 10 L 16 10 L 16 0 L 0 0 z M 1 1 L 7 1 L 7 3 L 1 3 L 1 1 z M 9 1 L 15 1 L 15 3 L 9 3 L 9 1 z M 1 5 L 3 5 L 3 7 L 1 7 L 1 5 z M 5 5 L 11 5 L 11 7 L 5 7 L 5 5 z M 13 5 L 15 5 L 15 7 L 13 7 L 13 5 z M 1 9 L 7 9 L 7 11 L 1 11 L 1 9 z M 11 11 L 11 16 L 16 16 L 16 11 L 11 11 z M 12 12 L 13 12 L 13 13 L 14 13 L 14 12 L 15 12 L 15 14 L 14 14 L 14 15 L 13 15 L 13 14 L 12 14 L 12 12 z M 1 13 L 3 13 L 3 15 L 1 15 L 1 13 z " fill="#c0bfbc" />
</svg>
