<?xml version="1.0" encoding="UTF-8" standalone="no"?>
<svg
   xmlns:dc="http://purl.org/dc/elements/1.1/"
   xmlns:cc="http://creativecommons.org/ns#"
   xmlns:rdf="http://www.w3.org/1999/02/22-rdf-syntax-ns#"
   xmlns:svg="http://www.w3.org/2000/svg"
   xmlns="http://www.w3.org/2000/svg"
   height="128"
   width="128"
   id="svg71"
   viewBox="0 0 128 128"
   version="1">
  <metadata
     id="metadata2">
    <rdf:RDF>
      <cc:Work
         rdf:about="">
        <dc:format>image/svg+xml</dc:format>
        <dc:type
           rdf:resource="http://purl.org/dc/dcmitype/StillImage" />
        <dc:title></dc:title>
      </cc:Work>
    </rdf:RDF>
  </metadata>
  <defs
     id="defs19">
    <linearGradient
       gradientTransform="scale(4)"
       gradientUnits="userSpaceOnUse"
       y2="24.957001"
       y1="7.0448999"
       x2="16"
       x1="16"
       id="d">
      <stop
         id="stop4"
         offset="0"
         stop-color="#fff" />
      <stop
         id="stop6"
         offset="1"
         stop-color="#f6f5f4" />
    </linearGradient>
    <linearGradient
       gradientTransform="scale(4)"
       gradientUnits="userSpaceOnUse"
       y2="24.957001"
       y1="7"
       x2="16"
       x1="16"
       id="e">
      <stop
         id="stop9"
         offset="0"
         stop-color="#9a9996" />
      <stop
         id="stop11"
         offset="1"
         stop-color="#77767b" />
    </linearGradient>
    <linearGradient
       gradientTransform="scale(4)"
       gradientUnits="userSpaceOnUse"
       y2="6"
       y1="26"
       x2="16"
       x1="16"
       id="f">
      <stop
         id="stop14"
         offset="0" />
      <stop
         id="stop16"
         offset="1"
         stop-color="#241f31" />
    </linearGradient>
  </defs>
  <rect
     style="fill:#b5835a;stroke-width:4"
     id="rect21"
     ry="0"
     height="104"
     width="104"
     y="16"
     x="12" />
  <rect
     style="fill:#cdab8f;stroke-width:4"
     id="rect23"
     ry="0"
     height="104"
     width="104"
     y="12"
     x="12" />
  <rect
     style="fill:#a51d2d;stroke-width:4"
     id="rect25"
     ry="0"
     height="16"
     width="48"
     y="12"
     x="12" />
  <rect
     style="fill:#a51d2d;stroke-width:4"
     id="rect27"
     ry="0"
     height="16"
     width="48"
     y="12"
     x="68" />
  <rect
     style="fill:#a51d2d;stroke-width:4"
     id="rect29"
     ry="0"
     height="18"
     width="48"
     y="38"
     x="40" />
  <rect
     style="fill:#a51d2d;stroke-width:4"
     id="rect31"
     ry="0"
     height="20"
     width="20"
     y="36"
     x="96" />
  <rect
     style="fill:#a51d2d;stroke-width:4"
     id="rect33"
     ry="0"
     height="20"
     width="20"
     y="36"
     x="12" />
  <rect
     style="fill:#e01b24;stroke-width:4"
     id="rect35"
     ry="0"
     height="16"
     width="48"
     y="8"
     x="12" />
  <rect
     style="fill:#e01b24;stroke-width:4"
     id="rect37"
     ry="0"
     height="16"
     width="48"
     y="8"
     x="68" />
  <rect
     style="fill:#e01b24;stroke-width:4"
     id="rect39"
     ry="0"
     height="16"
     width="48"
     y="36"
     x="40" />
  <rect
     style="fill:#e01b24;stroke-width:4"
     id="rect41"
     ry="0"
     height="16"
     width="20"
     y="36"
     x="96" />
  <rect
     style="fill:#e01b24;stroke-width:4"
     id="rect43"
     ry="0"
     height="16"
     width="20"
     y="36"
     x="12" />
  <rect
     style="fill:#a51d2d;stroke-width:4"
     id="rect45"
     ry="0"
     height="16"
     width="48"
     y="68"
     x="12" />
  <rect
     style="fill:#a51d2d;stroke-width:4"
     id="rect47"
     ry="0"
     height="16"
     width="48"
     y="68"
     x="68" />
  <rect
     style="fill:#a51d2d;stroke-width:4"
     id="rect49"
     ry="0"
     height="18"
     width="48"
     y="94"
     x="40" />
  <rect
     style="fill:#a51d2d;stroke-width:4"
     id="rect51"
     ry="0"
     height="16"
     width="20"
     y="96"
     x="96" />
  <rect
     style="fill:#a51d2d;stroke-width:4"
     id="rect53"
     ry="0"
     height="16"
     width="20"
     y="96"
     x="12" />
  <rect
     style="fill:#e01b24;stroke-width:4"
     id="rect55"
     ry="0"
     height="16"
     width="48"
     y="64"
     x="12" />
  <rect
     style="fill:#e01b24;stroke-width:4"
     id="rect57"
     ry="0"
     height="16"
     width="48"
     y="64"
     x="68" />
  <rect
     style="fill:#e01b24;stroke-width:4"
     id="rect59"
     ry="0"
     height="16"
     width="48"
     y="92"
     x="40" />
  <rect
     style="fill:#e01b24;stroke-width:4"
     id="rect61"
     ry="0"
     height="16"
     width="20"
     y="92"
     x="96" />
  <path
     style="fill:url(#f);stroke-width:4"
     id="path63"
     d="m 64,24 c -8,6 -28.2968,12.1796 -40,8 1.30856,31.9232 6.5884,61.308 40,72.172 C 97.4116,93.308 102.6916,63.924 104,32 92.2968,36.1796 72,30 64,24 Z" />
  <rect
     style="fill:#e01b24;stroke-width:4"
     id="rect65"
     ry="0"
     height="16"
     width="20"
     y="92"
     x="12" />
  <path
     style="fill:url(#d);stroke-width:4"
     id="path67"
     d="m 64,28.1796 c -4.6804,2.9668 -10.8064,5.5816 -17.7344,7.2108 -6.038,1.41988 -12.2064,1.66052 -18.008,0.84376 0.79232,14.03 2.44648,27.3044 7.2188,38.008 5.1548,11.5616 13.5648,20.3812 28.5236,25.586 14.9588,-5.2048 23.3684,-14.0244 28.5236,-25.586 4.7724,-10.7036 6.4264,-23.978 7.2188,-38.008 -5.8016,0.81676 -11.97,0.57616 -18.008,-0.84376 C 74.8064,33.7612 68.6804,31.1464 64,28.1796 Z" />
  <path
     style="fill:url(#e);stroke-width:4"
     id="path69"
     d="M 64,28 V 99.648 C 78.9588,94.4432 87.3684,85.6236 92.5236,74.062 97.296,63.3584 98.95,50.084 99.7424,36.054 c -5.8016,0.81676 -11.97,0.57616 -18.008,-0.84376 -6.928,-1.6292 -13.054,-4.244 -17.7344,-7.2108 z" />
</svg>
